<svg xmlns="http://www.w3.org/2000/svg" width="36.162" height="41.743" viewBox="0 0 36.162 41.743">
  <g id="Grupo_1135" data-name="Grupo 1135" transform="translate(2558.313 -1040.647)">
    <path id="Caminho_1130" data-name="Caminho 1130" d="M-2542.058,1041.488c-4,4.688-10.823,6.292-14.216,6.816a2.41,2.41,0,0,0-2.039,2.384v7.372a25.584,25.584,0,0,0,17.281,24.2,2.465,2.465,0,0,0,1.6,0,25.584,25.584,0,0,0,17.281-24.2v-7.372a2.41,2.41,0,0,0-2.039-2.384c-3.392-.524-10.215-2.128-14.216-6.816A2.4,2.4,0,0,0-2542.058,1041.488Z" fill="#6e2382"/>
    <circle id="Elipse_206" data-name="Elipse 206" cx="10.11" cy="10.11" r="10.11" transform="translate(-2550.342 1051.371)" fill="#fd7322"/>
    <g id="Grupo_1134" data-name="Grupo 1134" transform="translate(-2545.421 1057.254)">
      <path id="Caminho_1131" data-name="Caminho 1131" d="M-2521.271,1092.282l-3.22-3.22a1.224,1.224,0,0,1,0-1.732h0a1.224,1.224,0,0,1,1.731,0l1.488,1.488,4.708-4.708a1.224,1.224,0,0,1,1.731,0h0a1.224,1.224,0,0,1,0,1.732Z" transform="translate(2524.85 -1083.751)" fill="#fff"/>
    </g>
  </g>
</svg>
