<svg xmlns="http://www.w3.org/2000/svg" width="24.49" height="48.08" viewBox="0 0 24.49 48.08">
  <g id="Grupo_1132" data-name="Grupo 1132" transform="translate(4703.762 -479.793)">
    <rect id="Retângulo_630" data-name="Retângulo 630" width="24.49" height="48.08" rx="1" transform="translate(-4703.762 479.793)" fill="#6d2080"/>
    <path id="Caminho_1128" data-name="Caminho 1128" d="M-4677.948,489.793h-2.7a1.054,1.054,0,0,0-1.054,1.054h0a1.7,1.7,0,0,1-1.7,1.7h-8.8a1.7,1.7,0,0,1-1.7-1.7h0a1.054,1.054,0,0,0-1.054-1.054h-2.7a1.1,1.1,0,0,0-1.1,1.1v40.729a1.1,1.1,0,0,0,1.1,1.1h19.716a1.1,1.1,0,0,0,1.1-1.1V490.89A1.1,1.1,0,0,0-4677.948,489.793Z" transform="translate(-3.71 -7.422)" fill="#147dd2"/>
  </g>
</svg>
