<svg xmlns="http://www.w3.org/2000/svg" width="42.868" height="28.03" viewBox="0 0 42.868 28.03">
  <g id="Grupo_1127" data-name="Grupo 1127" transform="translate(-111.274 -489.187)">
    <g id="Grupo_1045" data-name="Grupo 1045" transform="translate(111.274 489.187)">
      <g id="Grupo_1044" data-name="Grupo 1044">
        <path id="Caminho_1107" data-name="Caminho 1107" d="M132.662,489.187a4.591,4.591,0,1,0,4.591,4.591A4.591,4.591,0,0,0,132.662,489.187Zm0,7.3a2.7,2.7,0,1,1,2.7-2.7A2.7,2.7,0,0,1,132.662,496.482Z" transform="translate(-109.146 -489.187)" fill="#fd7322"/>
        <path id="Caminho_1108" data-name="Caminho 1108" d="M133.4,499.343H118.7a.784.784,0,0,0-.783.783v2.841a.418.418,0,0,0,.418.418h2.143a4.837,4.837,0,0,1,4.818,4.625,4.713,4.713,0,0,1-4.8,4.8,4.837,4.837,0,0,1-4.625-4.818V491.76a2.3,2.3,0,0,0-2.3-2.3h0a2.3,2.3,0,0,0-2.3,2.3v16.41h0a9.176,9.176,0,1,0,16.961-5.019h3.69a.157.157,0,0,1,.157.156v11.127A2.563,2.563,0,0,0,134.649,517h0a2.563,2.563,0,0,0,2.563-2.563V503.151h0A3.808,3.808,0,0,0,133.4,499.343Z" transform="translate(-111.274 -489.152)" fill="#fff"/>
        <path id="Caminho_1109" data-name="Caminho 1109" d="M148.971,511.7h-6.849a.157.157,0,0,1-.115-.264l8.325-8.948a1.57,1.57,0,0,0,.419-1.067v-2.148a1.044,1.044,0,0,0-1.043-1.045H137.491a1.9,1.9,0,0,0,0,3.808h6.374a.314.314,0,0,1,.23.527l-8.087,8.672a1.565,1.565,0,0,0-.42,1.068v2.8a.783.783,0,0,0,.783.783h12.6a2.092,2.092,0,0,0,0-4.183Z" transform="translate(-108.194 -488.041)" fill="#fff"/>
      </g>
    </g>
  </g>
</svg>
