<svg xmlns="http://www.w3.org/2000/svg" width="163.614" height="133.939" viewBox="0 0 163.614 133.939">
  <g id="Grupo_1049" data-name="Grupo 1049" transform="translate(-2340.516 -2073.21)">
    <rect id="Retângulo_552" data-name="Retângulo 552" width="163.614" height="81.807" transform="translate(2340.516 2125.343)" fill="#6d2080"/>
    <path id="Caminho_1110" data-name="Caminho 1110" d="M2340.516,2183.2,2504.129,2265H2340.516Z" transform="translate(0 -57.854)" fill="#23cdb9"/>
    <path id="Caminho_1111" data-name="Caminho 1111" d="M2340.516,2265l163.614-81.807V2265Z" transform="translate(0 -57.854)" fill="#23cdb9"/>
    <path id="Caminho_1112" data-name="Caminho 1112" d="M2340.516,2310.4h163.614l-81.807-40.9Z" transform="translate(0 -103.246)" fill="#6d2080"/>
    <path id="Caminho_1113" data-name="Caminho 1113" d="M2340.516,2137.8h163.614l-81.807-40.9Z" transform="translate(0 -12.461)" fill="#6d2080"/>
    <path id="Caminho_1114" data-name="Caminho 1114" d="M2507.4,2140.172l-52.037,26.074-52.037-26.074V2073.21H2507.4Z" transform="translate(-33.037)" fill="#ff7323"/>
    <rect id="Retângulo_553" data-name="Retângulo 553" width="85.114" height="3.692" transform="translate(2379.765 2082.69)" fill="#fff"/>
    <rect id="Retângulo_554" data-name="Retângulo 554" width="85.114" height="3.692" transform="translate(2379.765 2091.122)" fill="#fff"/>
    <rect id="Retângulo_555" data-name="Retângulo 555" width="85.114" height="3.692" transform="translate(2379.765 2099.554)" fill="#fff"/>
    <rect id="Retângulo_556" data-name="Retângulo 556" width="85.114" height="3.692" transform="translate(2379.765 2107.987)" fill="#fff"/>
    <rect id="Retângulo_557" data-name="Retângulo 557" width="85.114" height="3.692" transform="translate(2379.765 2116.419)" fill="#fff"/>
    <rect id="Retângulo_558" data-name="Retângulo 558" width="85.114" height="3.692" transform="translate(2379.765 2124.851)" fill="#fff"/>
    <rect id="Retângulo_559" data-name="Retângulo 559" width="42.557" height="3.692" transform="translate(2379.765 2133.283)" fill="#fff"/>
  </g>
</svg>
