<svg xmlns="http://www.w3.org/2000/svg" width="226.801" height="201.168" viewBox="0 0 226.801 201.168">
  <g id="Grupo_1153" data-name="Grupo 1153" transform="translate(2614.815 1980.716)">
    <path id="Caminho_1153" data-name="Caminho 1153" d="M-2549.246-1779.548h95.662a17.739,17.739,0,0,0,15.362-8.869l47.831-82.845a17.736,17.736,0,0,0,0-17.738l-47.831-82.846a17.738,17.738,0,0,0-15.362-8.869h-95.662a17.739,17.739,0,0,0-15.362,8.869L-2612.438-1889a17.736,17.736,0,0,0,0,17.738l47.831,82.845A17.74,17.74,0,0,0-2549.246-1779.548Z" transform="translate(0 0)" fill="red"/>
    <g id="Grupo_1152" data-name="Grupo 1152" transform="translate(-2579.076 -1903.727)">
      <path id="Caminho_1154" data-name="Caminho 1154" d="M-2549.557-1893.909c14.089,0,24.965,9.573,24.965,23.6s-10.875,23.6-24.965,23.6-24.962-9.576-24.962-23.6S-2563.644-1893.909-2549.557-1893.909Zm0,12.174c-6.632,0-10.942,5.059-10.942,11.421s4.31,11.422,10.942,11.422,10.943-5.062,10.943-11.422S-2542.922-1881.735-2549.557-1881.735Z" transform="translate(2574.519 1893.909)" fill="#fff"/>
      <path id="Caminho_1155" data-name="Caminho 1155" d="M-2512.644-1893.062h24.35c10.667,0,16.414,7.112,16.414,15.663,0,8.479-5.747,15.319-16.414,15.319h-10.534v14.635h-13.816Zm22.571,11.489h-8.755v8h8.755a3.936,3.936,0,0,0,4.171-3.965A3.951,3.951,0,0,0-2490.073-1881.573Z" transform="translate(2567.521 1893.813)" fill="#fff"/>
      <path id="Caminho_1156" data-name="Caminho 1156" d="M-2458.318-1864.219a21.259,21.259,0,0,0,14.7,5.88c2.6,0,5.059-.888,5.059-2.668s-1.913-2.667-6.429-3.486c-7.52-1.37-19.012-3.147-19.012-14.568,0-7.729,6.429-14.774,18.945-14.774,7.453,0,14.156,2.121,19.354,6.36l-7.387,9.781a22.7,22.7,0,0,0-12.719-4.513c-3.419,0-4.174,1.23-4.174,2.395,0,1.776,1.849,2.391,6.7,3.212,7.521,1.3,18.669,3.489,18.669,14.02,0,10.054-7.454,15.868-19.7,15.868-9.712,0-16.345-2.874-21.2-7.251Z" transform="translate(2562.189 1893.901)" fill="#fff"/>
      <path id="Caminho_1157" data-name="Caminho 1157" d="M-2415.889-1893.062h14.635l-1.71,28.658h-11.079Zm7.384,31.8a7.359,7.359,0,0,1,7.251,7.32,7.342,7.342,0,0,1-7.251,7.248,7.342,7.342,0,0,1-7.248-7.248A7.358,7.358,0,0,1-2408.5-1861.261Z" transform="translate(2556.578 1893.813)" fill="#fff"/>
    </g>
  </g>
</svg>
