<svg xmlns="http://www.w3.org/2000/svg" width="70" height="70" viewBox="0 0 70 70">
  <g id="Grupo_1147" data-name="Grupo 1147" transform="translate(-346.738 -188.182)">
    <path id="Caminho_1140" data-name="Caminho 1140" d="M416.738,258.182H362.06s-15.322,0-15.322-15.322V188.182h54.678s15.322,0,15.322,15.321v54.679Z" fill="#d20025"/>
    <path id="Caminho_1141" data-name="Caminho 1141" d="M409.217,293.947h-3.376v-17.3h3.376v17.3Z" transform="translate(-30.677 -45.404)" fill="#fff"/>
    <path id="Caminho_1142" data-name="Caminho 1142" d="M425.068,286.7h-5.53V262.951h5.53V286.7Z" transform="translate(-37.761 -38.155)" fill="#fff"/>
    <path id="Caminho_1143" data-name="Caminho 1143" d="M383.288,219.475s5.575-5.451,14.972-3.657a16,16,0,0,1,7.3,3.459s.472.441.835.079c0,0,.459-.361-.052-.9a16.718,16.718,0,0,0-8.1-5.45,21.337,21.337,0,0,0-14.979.929A15.687,15.687,0,0,0,376,221.147a42.037,42.037,0,0,0-6.464,2.748s-.819.323-.509.96c0,0,.265.456.981.117,0,0,2.572-.887,5.051-1.44a19.1,19.1,0,0,0,5.288,19.692.716.716,0,0,0,.88.14.56.56,0,0,0,.118-.763,22,22,0,0,1-2.861-7.51,18.042,18.042,0,0,1,2.145-12.5s9.508-1.327,17.612,1.725c0,0,13.766,4.491,10.3,12.823a12.642,12.642,0,0,1-4.807,5.511s-.637.371-.291.9a.742.742,0,0,0,.938.15s5.819-1.894,8.33-6.569c0,0,5.1-7.8-6.918-14.156a33.035,33.035,0,0,0-7.553-2.709,44.081,44.081,0,0,0-14.953-.793" transform="translate(-11.134 -12.207)" fill="#fff"/>
  </g>
</svg>
