<svg xmlns="http://www.w3.org/2000/svg" width="70" height="70" viewBox="0 0 70 70">
  <g id="Grupo_1146" data-name="Grupo 1146" transform="translate(-110.295 -110.292)">
    <path id="Caminho_1137" data-name="Caminho 1137" d="M123.108,110.292l44.479.026a12.766,12.766,0,0,1,12.708,12.761v44.478a12.789,12.789,0,0,1-12.76,12.735l-44.505-.026a12.8,12.8,0,0,1-12.734-12.76l.052-44.479a12.756,12.756,0,0,1,12.761-12.734Z" transform="translate(0 0)" fill="#33348e" fill-rule="evenodd"/>
    <path id="Caminho_1138" data-name="Caminho 1138" d="M376.191,1149.121h-5.1l-2.1,3.894h3.572l3.625-3.894Zm3.389,6.328h-4.965V1165.9c0,3.2-2.207,4.125-3.835,4.125-1.551,0-3.258-.564-3.232-3.357v-11.22h-4.965l-.026,11.912c0,4.611,2.707,6.66,6.437,6.66a6.239,6.239,0,0,0,5.753-3.023h.052v2.536h4.781v-18.085Zm-20.885,4.79c0-4.483-4.833-5.277-7.513-5.277-3.862,0-7.881.794-8.485,6.327H347.5c.158-1.05.6-2.511,3.073-2.511,1.287,0,3.284.1,3.284,2.1,0,1.024-.972,1.332-1.761,1.434l-4.466.64c-3.179.436-5.543,2.254-5.543,5.79,0,3.74,2.942,5.277,5.753,5.277a7.794,7.794,0,0,0,6.121-2.613,7.637,7.637,0,0,0,.473,2.126l4.282-.026c0-2-.026-3.458-.026-3.484v-9.787Zm-21.173-11.118h-4.965v6.3h-2.575v3.407h2.548v10.99c0,2.331.762,3.92,5.07,3.92h.657c.788,0,1.576-.052,2.338-.077v-3.613c-.342.026-.709.077-1.025.077-2.023,0-2.076-.41-2.076-1.486l.026-9.811h3.1v-3.407h-3.1v-6.3Zm-9.825-.026h-5.359l-.026,24.414h5.359Z" transform="translate(-205.638 -1006.532)" fill="#fff22d" fill-rule="evenodd"/>
    <path id="Caminho_1139" data-name="Caminho 1139" d="M1131.867,1670.839v-2.331c-.487.384-1.307.691-3.305.973-1.819.307-3.3.768-3.3,2.741a2.125,2.125,0,0,0,2.254,2.177c2.152,0,4.355-1.358,4.355-3.561Z" transform="translate(-983.725 -1510.273)" fill="#33348e" fill-rule="evenodd"/>
  </g>
</svg>
