<svg xmlns="http://www.w3.org/2000/svg" width="70" height="70" viewBox="0 0 70 70">
  <g id="Grupo_1145" data-name="Grupo 1145" transform="translate(-799.419 -770.432)">
    <path id="path76" d="M770.419,770.432h70v70h-70Z" transform="translate(29 0)" fill="#fff200" fill-rule="evenodd"/>
    <path id="path78" d="M1049.357,1010.25l5.886,4.033,5.76-3.85.017-7.908Zm-34.035,41.911-5.866-4-5.93,4.007.059,7.751Zm22.275-34.208,5.748,3.867-27.313,18.48,16.877,11.391,7.926-5.372-6.157-4.078,14.21-9.524,11.889,7.888-28.725,19.148-28.343-19.015Zm-10.76,26.216-5.748-3.866,27.313-18.48-16.877-11.391-7.926,5.371,6.156,4.079-14.21,9.524-11.89-7.888,28.622-19.148,28.418,19.1Z" transform="translate(-197.85 -225.712)" fill="#1a5dad" fill-rule="evenodd"/>
  </g>
</svg>
