<svg xmlns="http://www.w3.org/2000/svg" width="44.127" height="41.809" viewBox="0 0 44.127 41.809">
  <path id="Caminho_1148" data-name="Caminho 1148" d="M31.734,19.642a9.447,9.447,0,0,0-1.31-4.332L23.574,3.322A10.284,10.284,0,0,1,22.466.4l-.3.5a9.556,9.556,0,0,0,0,9.571L27.7,20.045a9.556,9.556,0,0,1,0,9.571l-.3.5A10.284,10.284,0,0,0,26.294,27.2l-5.037-8.765-3.224-5.642A10.284,10.284,0,0,1,16.925,9.87l-.3.5a9.556,9.556,0,0,0,0,9.571h0l5.541,9.571a9.556,9.556,0,0,1,0,9.571l-.3.5a10.284,10.284,0,0,0-1.108-2.922L13.8,24.679a10.642,10.642,0,0,1-1.31-5.239C5.138,21.355,0,25.485,0,30.22c0,6.649,9.873,11.989,22.063,11.989S44.126,36.869,44.126,30.22C44.227,25.687,39.19,21.556,31.734,19.642Z" transform="translate(0 -0.4)" fill="#fff"/>
</svg>
