<svg xmlns="http://www.w3.org/2000/svg" width="77.884" height="29.317" viewBox="0 0 77.884 29.317">
  <path id="Caminho_1159" data-name="Caminho 1159" d="M499.61,20.7s4.546-8.972,5.1-10.033a1.756,1.756,0,0,1,2.532-.682c1.461.779,1.61.859,2.447,1.327a2.012,2.012,0,0,1,.621,2.849c-.682,1.169-6.023,10.512-6.794,11.8-.657,1.1-1.753,3.1-3.945,3.1a3.99,3.99,0,0,1-3.908-2.447l-6.83-12.346c-.661-1.254-.657-2.05.475-2.886l2.045-1.352c1.863-1.049,2.368.172,2.922,1.1.585.975,5.333,9.57,5.333,9.57Zm15.727-10.422h3.09c1.166,0,1.772.284,1.772,1.553V27.414c0,1.169-.634,1.757-1.413,1.757h-3.56c-.974,0-1.65-.416-1.65-1.779V12.186c0-1.69.826-1.912,1.761-1.912Zm5.349-6.526a3.7,3.7,0,0,1-7.4.005V3.749a3.7,3.7,0,0,1,7.4,0Zm13.5,16.852s4.545-8.972,5.1-10.033a1.756,1.756,0,0,1,2.533-.682c1.461.779,1.61.859,2.447,1.327a2.013,2.013,0,0,1,.621,2.849c-.682,1.169-6.023,10.512-6.794,11.8-.658,1.1-1.753,3.1-3.945,3.1a3.99,3.99,0,0,1-3.908-2.447l-6.831-12.347c-.661-1.254-.657-2.05.475-2.886l2.046-1.352c1.863-1.049,2.368.172,2.922,1.1.584.975,5.333,9.571,5.333,9.571Zm22.1-10.52a9.818,9.818,0,0,0-9.984,9.644,9.99,9.99,0,0,0,19.968,0,9.818,9.818,0,0,0-9.984-9.644Zm-.049,13.54a3.9,3.9,0,1,1,3.994-3.9A3.946,3.946,0,0,1,556.239,23.62Z" transform="translate(-488.388 -0.05)" fill="#6d3189" fill-rule="evenodd"/>
</svg>
