<svg xmlns="http://www.w3.org/2000/svg" xmlns:xlink="http://www.w3.org/1999/xlink" width="73.919" height="147.834" viewBox="0 0 73.919 147.834">
  <defs>
    <clipPath id="clip-path">
      <rect id="Retângulo_521" data-name="Retângulo 521" width="21.814" height="21.814" fill="none"/>
    </clipPath>
  </defs>
  <g id="Grupo_1009" data-name="Grupo 1009" transform="translate(-1539.238 -394.453)">
    <g id="Grupo_1001" data-name="Grupo 1001" transform="translate(1539.238 394.453)">
      <rect id="Retângulo_108" data-name="Retângulo 108" width="73.919" height="147.834" rx="5" fill="#050f7d"/>
      <rect id="Retângulo_109" data-name="Retângulo 109" width="64.963" height="116.934" transform="translate(4.478 13.716)" fill="#fff"/>
      <circle id="Elipse_13" data-name="Elipse 13" cx="4.331" cy="4.331" r="4.331" transform="translate(32.629 134.508)" fill="#fd7322"/>
    </g>
    <g id="Grupo_1008" data-name="Grupo 1008" transform="translate(1551.011 436.654)">
      <g id="Grupo_1002" data-name="Grupo 1002" transform="translate(0 0)">
        <circle id="Elipse_19" data-name="Elipse 19" cx="25.187" cy="25.187" r="25.187" fill="#fd7322"/>
      </g>
      <g id="Grupo_1003" data-name="Grupo 1003" transform="translate(2.775 2.775)">
        <path id="Caminho_1065" data-name="Caminho 1065" d="M1597.126,548.955a22.412,22.412,0,1,1,22.412-22.412A22.438,22.438,0,0,1,1597.126,548.955Zm0-43.914a21.5,21.5,0,1,0,21.5,21.5A21.527,21.527,0,0,0,1597.126,505.041Z" transform="translate(-1574.714 -504.131)" fill="#fff"/>
      </g>
      <g id="Grupo_1005" data-name="Grupo 1005" transform="translate(16.94 13.217)">
        <g id="Grupo_1004" data-name="Grupo 1004">
          <path id="Caminho_1066" data-name="Caminho 1066" d="M1619.518,551v2.537h-3.53v-2.51a11.293,11.293,0,0,1-6.729-2.841l2.9-4.136a8.572,8.572,0,0,0,5.93,2.371c1.048,0,2.041-.358,2.041-1.076s-.773-1.076-2.592-1.407c-3.034-.552-7.667-1.268-7.667-5.874,0-2.786,2.068-5.35,6.122-5.875V529.6h3.53v2.648a11.486,11.486,0,0,1,5.791,2.428l-2.977,3.944a9.157,9.157,0,0,0-5.13-1.82c-1.379,0-1.682.5-1.682.964,0,.718.744.966,2.7,1.3,3.034.525,7.53,1.407,7.53,5.654C1625.751,548.268,1623.434,550.5,1619.518,551Z" transform="translate(-1609.258 -529.596)" fill="#fff"/>
        </g>
      </g>
      <g id="Grupo_10" data-name="Grupo 10" transform="translate(14.28 41.619)">
        <g id="Grupo_1007" data-name="Grupo 1007">
          <g id="Grupo_1006" data-name="Grupo 1006" clip-path="url(#clip-path)">
            <g id="Grupo_9" data-name="Grupo 9" transform="translate(0 0)">
              <path id="Caminho_30" data-name="Caminho 30" d="M1624.585,609.764a10.907,10.907,0,1,1-10.907-10.907,10.907,10.907,0,0,1,10.907,10.907h0" transform="translate(-1602.771 -598.857)" fill="#050f7d"/>
              <path id="Caminho_31" data-name="Caminho 31" d="M1636.612,624.155l-1.77-1.77a.684.684,0,0,0-.953,0l-1.77,1.77a.674.674,0,0,0,.953.953l.493-.493a5.319,5.319,0,0,1-5.133,4.176.674.674,0,0,0,0,1.347,6.693,6.693,0,0,0,6.534-5.723l.693.693a.674.674,0,0,0,.953-.953" transform="translate(-1617.525 -612.623)" fill="#fff"/>
              <path id="Caminho_32" data-name="Caminho 32" d="M1612.676,615.214l-.615.615a5.319,5.319,0,0,1,5.255-5.14.674.674,0,0,0,0-1.348,6.693,6.693,0,0,0-6.6,6.5l-.624-.625a.674.674,0,0,0-.953.953l1.769,1.77a.684.684,0,0,0,.953,0q.884-.886,1.77-1.77a.674.674,0,0,0-.953-.953" transform="translate(-1606.409 -605.042)" fill="#fff"/>
            </g>
          </g>
        </g>
      </g>
    </g>
  </g>
</svg>
