<svg xmlns="http://www.w3.org/2000/svg" width="82.306" height="53.818" viewBox="0 0 82.306 53.818">
  <g id="Grupo_1046" data-name="Grupo 1046" transform="translate(-111.274 -489.187)">
    <g id="Grupo_1045" data-name="Grupo 1045" transform="translate(111.274 489.187)">
      <g id="Grupo_1044" data-name="Grupo 1044">
        <path id="Caminho_1107" data-name="Caminho 1107" d="M136.886,489.187A8.815,8.815,0,1,0,145.7,498,8.815,8.815,0,0,0,136.886,489.187Zm0,14.007A5.192,5.192,0,1,1,142.078,498,5.193,5.193,0,0,1,136.886,503.194Z" transform="translate(-91.735 -489.187)" fill="#e64e00"/>
        <path id="Caminho_1108" data-name="Caminho 1108" d="M153.764,508.432H125.525a1.5,1.5,0,0,0-1.5,1.5v5.456a.8.8,0,0,0,.8.8h4.114a9.287,9.287,0,0,1,9.25,8.88,9.048,9.048,0,0,1-9.213,9.213,9.287,9.287,0,0,1-8.88-9.25V493.874a4.411,4.411,0,0,0-4.411-4.411h0a4.411,4.411,0,0,0-4.411,4.411v31.507h.009a17.617,17.617,0,1,0,32.565-9.637h7.085a.3.3,0,0,1,.3.3v21.364a4.921,4.921,0,0,0,4.921,4.921h0a4.921,4.921,0,0,0,4.921-4.921V515.744h0A7.311,7.311,0,0,0,153.764,508.432Z" transform="translate(-111.274 -488.866)" fill="#5d5d5b"/>
        <path id="Caminho_1109" data-name="Caminho 1109" d="M161.284,524.1h-13.15a.3.3,0,0,1-.221-.506l15.984-17.18a3.014,3.014,0,0,0,.8-2.048v-4.125a2,2,0,0,0-2-2.005H139.243a3.656,3.656,0,0,0,0,7.312H151.48a.6.6,0,0,1,.441,1.012l-15.528,16.65a3,3,0,0,0-.807,2.051v5.369a1.5,1.5,0,0,0,1.5,1.5h24.193a4.016,4.016,0,0,0,0-8.032Z" transform="translate(-82.993 -478.666)" fill="#5d5d5b"/>
      </g>
    </g>
  </g>
</svg>
