<svg xmlns="http://www.w3.org/2000/svg" width="231.182" height="278.802" viewBox="0 0 231.182 278.802">
  <g id="Grupo_1041" data-name="Grupo 1041" transform="translate(4090.694 552.023)">
    <ellipse id="Elipse_22" data-name="Elipse 22" cx="109.647" cy="4.556" rx="109.647" ry="4.556" transform="translate(-4088.231 -284.742)" fill="#bfbfbf"/>
    <rect id="Retângulo_546" data-name="Retângulo 546" width="156.382" height="238.754" rx="5" transform="translate(-4005.633 -552.023) rotate(20.872)" fill="#147dd2"/>
    <rect id="Retângulo_547" data-name="Retângulo 547" width="99.439" height="14.217" rx="6" transform="translate(-4045.532 -396.964) rotate(20.872)" fill="#0a5091"/>
    <rect id="Retângulo_548" data-name="Retângulo 548" width="99.439" height="14.217" rx="6" transform="translate(-4053.797 -375.288) rotate(20.872)" fill="#0a5091"/>
    <rect id="Retângulo_549" data-name="Retângulo 549" width="72.841" height="14.217" rx="6" transform="translate(-4062.062 -353.613) rotate(20.872)" fill="#0a5091"/>
    <g id="Grupo_2" data-name="Grupo 2" transform="translate(-3999.329 -530.097)">
      <path id="Caminho_32" data-name="Caminho 32" d="M-4008.682-512.536l-.072.189c-1.159-.442-2.313-.891-3.477-1.318-.225-.086-.281-.181-.239-.408.12-.657.208-1.322.334-1.978.04-.208-.008-.3-.205-.372q-2.368-.889-4.728-1.8a.3.3,0,0,0-.4.1c-.456.546-.934,1.076-1.39,1.626a.346.346,0,0,1-.471.131c-1.236-.487-2.482-.952-3.723-1.428-.08-.031-.169-.032-.22-.124a.692.692,0,0,1,.061-.09q5.728-6.014,11.458-12.024a1.991,1.991,0,0,1,2.267-.528c1.05.379,2.088.792,3.138,1.171a.325.325,0,0,1,.257.433q-1.164,7.194-2.31,14.393A16.231,16.231,0,0,0-4008.682-512.536Zm-6.229-8.53c1.051.4,2.065.778,3.07,1.178.257.1.318.034.354-.21.24-1.518.491-3.035.737-4.553.072-.449.136-.9.217-1.444Z" transform="translate(4053.01 547.058)" fill="#fff"/>
      <path id="Caminho_33" data-name="Caminho 33" d="M-4014.12-532.373c.477.3.956.589,1.421.905.29.192.544.422.821.629a.22.22,0,0,1,.1.294.371.371,0,0,1-.029.041c-.548.931-1.1,1.864-1.629,2.806-.113.2-.177.12-.283.011a7.31,7.31,0,0,0-1.83-1.394,6.266,6.266,0,0,0-2.3-.774,2.786,2.786,0,0,0-.367-.007c-1.234.075-1.688.954-1.021,1.985a14.47,14.47,0,0,0,1.494,1.8,7.052,7.052,0,0,1,1.646,2.613,4.418,4.418,0,0,1-1.5,4.787,5.677,5.677,0,0,1-4.253,1.358,10,10,0,0,1-2.371-.4c-.068-.02-.138-.09-.213-.011l-1.629-.622a2.761,2.761,0,0,0-.768-.433,13.234,13.234,0,0,1-2.407-1.62c-.167-.147-.241-.257-.1-.492q.829-1.372,1.6-2.779c.149-.268.232-.2.392-.032a9.15,9.15,0,0,0,2.1,1.748,7,7,0,0,0,2.77,1.027,2.447,2.447,0,0,0,.927-.077,1.273,1.273,0,0,0,.973-1.514,1.29,1.29,0,0,0-.118-.327,5.879,5.879,0,0,0-1.058-1.455,14.494,14.494,0,0,1-1.575-1.947,4.387,4.387,0,0,1,1.022-6.12,4.405,4.405,0,0,1,1.078-.562,7.479,7.479,0,0,1,4.467-.309c.187.038.37.147.573.079Z" transform="translate(4048.114 544.886)" fill="#fff"/>
      <path id="Caminho_34" data-name="Caminho 34" d="M-4039.76-539.741a.308.308,0,0,1,.362-.032q3.114,1.188,6.229,2.382a3.889,3.889,0,0,1,.6.3,1.574,1.574,0,0,1,.8,1.735c-.4,2.418-.822,4.833-1.235,7.247a1.554,1.554,0,0,1-.07.223.973.973,0,0,1-.023-.131,13.372,13.372,0,0,0-2.87-7.905c-.073-.093-.123-.217-.257-.248,0-.126-.1-.2-.166-.28a17.763,17.763,0,0,0-3.313-3.048.747.747,0,0,0-.121-.054Z" transform="translate(4039.829 539.816)" fill="#f8a61b"/>
      <path id="Caminho_35" data-name="Caminho 35" d="M-4037.143-537.785c.136.031.187.155.259.248a13.382,13.382,0,0,1,2.87,7.9.843.843,0,0,0,.023.131l-.388,2.576c.546-.618,1.054-1.191,1.557-1.766q3.119-3.554,6.23-7.113a.415.415,0,0,1,.559-.149c1.2.476,2.417.929,3.628,1.392a.608.608,0,0,1,.309.167l-2.161,2.315q-4.958,5.31-9.915,10.626a.43.43,0,0,1-.564.147q-1.838-.727-3.695-1.408c-.221-.084-.271-.18-.248-.411q.759-7.113,1.5-14.224C-4037.161-537.5-4037.156-537.643-4037.143-537.785Z" transform="translate(4040.74 541.433)" fill="#fff"/>
      <path id="Caminho_36" data-name="Caminho 36" d="M-4031.255-520.109c-.605-.23-1.209-.465-1.816-.691-.158-.061-.2-.111-.106-.277q2.766-4.758,5.523-9.52c.916-1.581,1.836-3.161,2.743-4.747.11-.194.2-.244.412-.16q1.761.69,3.537,1.349c.209.079.242.147.125.35q-3.233,5.567-6.454,11.14c-.6,1.042-1.216,2.078-1.81,3.124-.093.162-.171.187-.336.12C-4030.043-519.652-4030.649-519.877-4031.255-520.109Z" transform="translate(4045.083 543.218)" fill="#fff"/>
    </g>
  </g>
</svg>
